<svg width="109" height="110" viewBox="0 0 109 110" fill="none" xmlns="http://www.w3.org/2000/svg">
<path d="M78.3712 109.474C80.5849 109.474 82.7562 108.609 84.392 106.976L105.247 86.1652C107.667 83.7502 109 80.5377 109 77.119C109 73.7003 107.667 70.487 105.247 68.072L84.392 47.2611C81.9413 44.8145 78.2897 44.0918 75.0897 45.4191C71.8938 46.7447 69.829 49.8349 69.829 53.291V72.8604C36.0209 72.8604 8.51562 45.355 8.51562 11.547V4.73535C8.51562 2.38358 6.60959 0.477539 4.25781 0.477539C1.90604 0.477539 0 2.38358 0 4.73535V11.547C0 30.1991 7.26323 47.7351 20.4525 60.9243C33.6417 74.1127 51.1769 81.3768 69.829 81.3768C74.525 81.3768 78.3454 77.5564 78.3454 72.8612V53.291V53.2886C78.3521 53.2852 78.3604 53.2819 78.3679 53.2794C78.3704 53.2827 78.3737 53.2852 78.377 53.2886L99.232 74.1003C100.039 74.9061 100.484 75.978 100.484 77.119C100.484 78.26 100.039 79.3319 99.232 80.1377L78.377 102.346L78.3679 100.958C78.3604 100.955 78.3521 100.953 78.3454 100.949L76.948 102.344V96.2792C76.948 93.9274 76.4385 92.0213 74.0868 92.0213C71.7358 92.0213 69.829 93.9274 69.829 96.2792V100.946C69.829 104.402 71.8938 107.493 75.0897 108.818C76.1533 109.26 77.2677 109.474 78.3712 109.474Z" fill="#18293F"/>
</svg>
