<svg width="61" height="61" viewBox="0 0 61 61" fill="none" xmlns="http://www.w3.org/2000/svg">
<g clip-path="url(#clip0)">
<path d="M52.8232 0.942383H7.82324C3.68574 0.942383 0.323242 4.30488 0.323242 8.44238V53.4424C0.323242 57.5774 3.68574 60.9424 7.82324 60.9424H52.8232C56.9582 60.9424 60.3232 57.5774 60.3232 53.4424V8.44238C60.3232 4.30488 56.9582 0.942383 52.8232 0.942383Z" fill="#3B5999"/>
<path d="M41.5732 30.9424V23.4424C41.5732 21.3724 43.2532 21.5674 45.3232 21.5674H49.0732V12.1924H41.5732C35.3582 12.1924 30.3232 17.2274 30.3232 23.4424V30.9424H22.8232V40.3174H30.3232V60.9424H41.5732V40.3174H47.1982L50.9482 30.9424H41.5732Z" fill="white"/>
</g>
<defs>
<clipPath id="clip0">
<rect width="60" height="60" fill="white" transform="translate(0.323242 0.942383)"/>
</clipPath>
</defs>
</svg>
