<svg width="341" height="61" viewBox="0 0 341 61" fill="none" xmlns="http://www.w3.org/2000/svg">
<g clip-path="url(#clip0)">
<path d="M264.762 0.942383H215.617C212.62 0.942383 210.19 3.37238 210.19 6.36987V55.5147C210.19 58.5124 212.62 60.9424 215.617 60.9424H264.762C267.76 60.9424 270.19 58.5124 270.19 55.5147V6.36987C270.19 3.37238 267.76 0.942383 264.762 0.942383ZM228.756 52.7503C228.756 53.6227 228.049 54.3298 227.177 54.3298H220.454C219.581 54.3298 218.874 53.6227 218.874 52.7503V24.5659C218.874 23.6935 219.581 22.9864 220.454 22.9864H227.177C228.049 22.9864 228.756 23.6935 228.756 24.5659V52.7503ZM223.815 20.3296C220.288 20.3296 217.428 17.4699 217.428 13.9423C217.428 10.4147 220.288 7.55495 223.815 7.55495C227.343 7.55495 230.203 10.4147 230.203 13.9423C230.203 17.4699 227.343 20.3296 223.815 20.3296ZM263.893 52.8776C263.893 53.6796 263.243 54.3298 262.441 54.3298H255.226C254.424 54.3298 253.774 53.6796 253.774 52.8776V39.6575C253.774 37.6853 254.352 31.0154 248.62 31.0154C244.174 31.0154 243.272 35.5808 243.091 37.6296V52.8776C243.091 53.6796 242.44 54.3298 241.638 54.3298H234.66C233.858 54.3298 233.208 53.6796 233.208 52.8776V24.4387C233.208 23.6367 233.858 22.9864 234.66 22.9864H241.638C242.44 22.9864 243.091 23.6367 243.091 24.4387V26.8976C244.739 24.4233 247.19 22.5135 252.407 22.5135C263.959 22.5135 263.893 33.3066 263.893 39.2368V52.8776Z" fill="#0077B7"/>
</g>
<g clip-path="url(#clip1)">
<path d="M52.8232 0.942383H7.82324C3.68574 0.942383 0.323242 4.30488 0.323242 8.44238V53.4424C0.323242 57.5774 3.68574 60.9424 7.82324 60.9424H52.8232C56.9582 60.9424 60.3232 57.5774 60.3232 53.4424V8.44238C60.3232 4.30488 56.9582 0.942383 52.8232 0.942383Z" fill="#3B5999"/>
<path d="M41.5732 30.9424V23.4424C41.5732 21.3724 43.2532 21.5674 45.3232 21.5674H49.0732V12.1924H41.5732C35.3582 12.1924 30.3232 17.2274 30.3232 23.4424V30.9424H22.8232V40.3174H30.3232V60.9424H41.5732V40.3174H47.1982L50.9482 30.9424H41.5732Z" fill="white"/>
</g>
<rect x="311.59" y="0.942383" width="28.6" height="28.7005" rx="5" fill="#4CAF50"/>
<rect x="311.39" y="32.2417" width="28.6" height="28.7005" rx="5" fill="#FFC107"/>
<rect x="280.19" y="32.2417" width="28.6" height="28.7005" rx="5" fill="#2196F3"/>
<rect x="280.19" y="0.942383" width="28.6" height="28.7005" rx="5" fill="#F44336"/>
<g clip-path="url(#clip2)">
<path d="M84.0326 37.201L81.9441 44.9977L74.3106 45.1592C72.0293 40.9279 70.7354 36.0868 70.7354 30.9422C70.7354 25.9675 71.9452 21.2763 74.0897 17.1455H74.0914L80.8873 18.3914L83.8643 25.1466C83.2413 26.9631 82.9016 28.9131 82.9016 30.9422C82.9019 33.1444 83.3008 35.2544 84.0326 37.201Z" fill="#FBBB00"/>
<path d="M130.211 25.3379C130.556 27.1527 130.735 29.0268 130.735 30.9423C130.735 33.0901 130.51 35.1852 130.079 37.2061C128.619 44.083 124.803 50.0879 119.517 54.3373L119.515 54.3357L110.955 53.8989L109.744 46.3362C113.252 44.2791 115.993 41.0599 117.437 37.2061H101.395V25.3379H117.671H130.211Z" fill="#518EF8"/>
<path d="M119.515 54.3357L119.517 54.3374C114.375 58.4698 107.845 60.9423 100.735 60.9423C89.3105 60.9423 79.3776 54.5566 74.3105 45.1594L84.0325 37.2012C86.566 43.9627 93.0886 48.7759 100.735 48.7759C104.022 48.7759 107.101 47.8874 109.743 46.3363L119.515 54.3357Z" fill="#28B446"/>
<path d="M119.884 7.84895L110.166 15.8055C107.431 14.0962 104.199 13.1088 100.735 13.1088C92.9157 13.1088 86.2711 18.1428 83.8646 25.1468L74.0915 17.1457H74.0898C79.0827 7.5193 89.1409 0.942383 100.735 0.942383C108.015 0.942383 114.689 3.53527 119.884 7.84895Z" fill="#F14336"/>
</g>
<g clip-path="url(#clip3)">
<path fill-rule="evenodd" clip-rule="evenodd" d="M140.735 0.942383V60.9424H200.19V0.942383H140.735ZM183.037 24.6424C182.03 24.9171 172.814 32.1285 172.207 33.8979C172.073 34.5084 172.22 40.4356 172.354 41.3236C172.962 41.4608 177.345 41.3415 178.149 41.4764L178.053 43.3087C177.265 43.2482 171.695 43.2637 168.518 43.2637C166.901 43.2637 161.709 43.442 160.114 43.3964L160.416 41.6523C161.291 41.5872 164.913 41.8144 165.706 40.9605C166.101 40.5365 165.976 34.9028 165.842 33.9515C165.507 32.9332 157.432 22.72 155.322 21.0475H149.882V18.4808H168.225V18.6591C168.24 18.6591 168.272 18.6608 168.287 18.6632L168.225 19.0983V21.0477H162.693C165.159 24.6875 168.694 29.0796 170.201 31.1888L177.591 24.4324H173.198L172.579 21.868H188.667L188.549 22.0504C188.562 22.0504 188.586 22.0528 188.604 22.0528L187.457 23.7362C187.445 23.7362 187.428 23.7386 187.418 23.7408L186.956 24.4326H183.988C183.604 24.5184 183.265 24.595 183.037 24.6424ZM187.892 43.4034L186.546 43.3042L185.295 43.194L185.282 40.4536L186.867 40.6499L188.285 40.7196L187.892 43.4034ZM188.173 38.8514L185.706 38.6507L185.639 27.0695C186.206 27.182 190.563 27.5991 191.043 27.6147L188.173 38.8514Z" fill="#5A2B73"/>
</g>
<defs>
<clipPath id="clip0">
<rect width="60" height="60" fill="white" transform="translate(210.19 0.942383)"/>
</clipPath>
<clipPath id="clip1">
<rect width="60" height="60" fill="white" transform="translate(0.323242 0.942383)"/>
</clipPath>
<clipPath id="clip2">
<rect width="60" height="60" fill="white" transform="translate(70.7354 0.942383)"/>
</clipPath>
<clipPath id="clip3">
<rect x="140.735" y="0.942383" width="59.4545" height="60" rx="6" fill="white"/>
</clipPath>
</defs>
</svg>
