<svg width="61" height="61" viewBox="0 0 61 61" fill="none" xmlns="http://www.w3.org/2000/svg">
<g clip-path="url(#clip0)">
<path d="M54.7625 0.942383H5.61743C2.61994 0.942383 0.189941 3.37238 0.189941 6.36987V55.5147C0.189941 58.5124 2.61994 60.9424 5.61743 60.9424H54.7623C57.7599 60.9424 60.1899 58.5124 60.1899 55.5147V6.36987C60.1899 3.37238 57.7599 0.942383 54.7625 0.942383ZM18.7565 52.7503C18.7565 53.6227 18.0494 54.3298 17.177 54.3298H10.4536C9.5812 54.3298 8.87408 53.6227 8.87408 52.7503V24.5659C8.87408 23.6935 9.5812 22.9864 10.4536 22.9864H17.177C18.0494 22.9864 18.7565 23.6935 18.7565 24.5659V52.7503ZM13.8153 20.3296C10.2877 20.3296 7.42795 17.4699 7.42795 13.9423C7.42795 10.4147 10.2877 7.55495 13.8153 7.55495C17.3429 7.55495 20.2026 10.4147 20.2026 13.9423C20.2026 17.4699 17.343 20.3296 13.8153 20.3296ZM53.8931 52.8776C53.8931 53.6796 53.2428 54.3298 52.4408 54.3298H45.2261C44.4241 54.3298 43.7738 53.6796 43.7738 52.8776V39.6575C43.7738 37.6853 44.3523 31.0154 38.6199 31.0154C34.1735 31.0154 33.2716 35.5808 33.0905 37.6296V52.8776C33.0905 53.6796 32.4404 54.3298 31.6383 54.3298H24.6604C23.8584 54.3298 23.2081 53.6796 23.2081 52.8776V24.4387C23.2081 23.6367 23.8584 22.9864 24.6604 22.9864H31.6383C32.4403 22.9864 33.0905 23.6367 33.0905 24.4387V26.8976C34.7393 24.4233 37.1895 22.5135 42.4065 22.5135C53.9592 22.5135 53.8931 33.3066 53.8931 39.2368V52.8776Z" fill="#0077B7"/>
</g>
<defs>
<clipPath id="clip0">
<rect width="60" height="60" fill="white" transform="translate(0.189941 0.942383)"/>
</clipPath>
</defs>
</svg>
