<svg width="61" height="61" viewBox="0 0 61 61" fill="none" xmlns="http://www.w3.org/2000/svg">
<g clip-path="url(#clip0)">
<path fill-rule="evenodd" clip-rule="evenodd" d="M0.735352 0.942383V60.9424H60.1899V0.942383H0.735352ZM43.0373 24.6424C42.03 24.9171 32.814 32.1285 32.2069 33.8979C32.0726 34.5084 32.2201 40.4356 32.3545 41.3236C32.9615 41.4608 37.3452 41.3415 38.149 41.4764L38.0529 43.3087C37.2646 43.2482 31.6954 43.2637 28.5179 43.2637C26.9011 43.2637 21.7092 43.442 20.1141 43.3964L20.416 41.6523C21.2912 41.5872 24.9134 41.8144 25.7063 40.9605C26.1013 40.5365 25.9761 34.9028 25.8423 33.9515C25.5073 32.9332 17.4324 22.72 15.3222 21.0475H9.8822V18.4808H28.225V18.6591C28.2405 18.6591 28.272 18.6608 28.2874 18.6632L28.225 19.0983V21.0477H22.6934C25.159 24.6875 28.6938 29.0796 30.2013 31.1888L37.5908 24.4324H33.1981L32.5795 21.868H48.6671L48.5487 22.0504C48.5619 22.0504 48.5865 22.0528 48.6041 22.0528L47.4567 23.7362C47.4452 23.7362 47.4276 23.7386 47.4184 23.7408L46.9565 24.4326H43.9883C43.6044 24.5184 43.2653 24.595 43.0373 24.6424ZM47.892 43.4034L46.5457 43.3042L45.2948 43.194L45.2816 40.4536L46.8669 40.6499L48.2851 40.7196L47.892 43.4034ZM48.1733 38.8514L45.7059 38.6507L45.639 27.0695C46.2061 27.182 50.5628 27.5991 51.043 27.6147L48.1733 38.8514Z" fill="#5A2B73"/>
</g>
<defs>
<clipPath id="clip0">
<rect x="0.735352" y="0.942383" width="59.4545" height="60" rx="6" fill="white"/>
</clipPath>
</defs>
</svg>
